<svg width="156" height="140" viewBox="0 0 156 140" fill="none" xmlns="http://www.w3.org/2000/svg">
<g clip-path="url(#clip0_34_294)">
<path d="M32.6754 76.5371C31.3196 75.6674 30.5 74.1701 30.5 72.5625V31.662C30.5 30.3929 31.0118 29.1772 31.9202 28.2884L58.5726 1.85006C60.1793 0.278064 66.3671 -0.676532 68.2339 0.577586L86.8275 12.8089V15.3018L80.0827 19.6571C74.1076 15.643 70.7576 13.3925 64.7825 9.37832L39.9791 33.6459V69.9831L59.1195 82.2622V49.4764C59.1195 48.1966 59.6401 46.9715 60.5621 46.0812L86.8275 20.7552L87.9212 19.8463C89.5168 18.4338 95.2391 18.3037 97.0357 19.4827L122.921 36.2065C124.253 37.0807 125.291 39.1607 125.291 40.751L125.473 73.8349C125.837 78.3794 122.439 80.8236 120.916 81.6515C119.392 82.4792 115.629 84.3781 109.249 80.1972L90.4732 67.8362C89.1211 66.9657 87.3743 63.6242 87.3743 62.0192V39.8421L93.5722 34.2069L96.8534 36.2065V60.8987L116.176 73.3382V42.753L93.2286 27.6944L68.5985 51.4785C68.5985 51.4785 68.5985 67.1566 68.5985 82.5604C68.5985 87.6502 65.1988 90.0939 63.6767 90.9223C62.1546 91.7506 58.5726 93.1056 53.8331 90.3769C42.6565 83.207 32.6754 76.5371 32.6754 76.5371Z" fill="#4A4E69"/>
<path d="M142 119H147.301V121.397H145.642L148.919 130.608L152.345 121.397H150.699V119H156V121.397H154.557L148.339 137.603H150.254V140H144.617V137.603H146.316L147.8 133.632L143.133 121.397H142V119Z" fill="#4A4E69"/>
<path d="M137.004 122.503C137.004 122.095 136.906 121.75 136.711 121.468C136.526 121.177 136.283 120.944 135.981 120.769C135.678 120.584 135.342 120.453 134.972 120.375C134.602 120.288 134.241 120.244 133.89 120.244C133.501 120.244 133.14 120.288 132.809 120.375C132.487 120.463 132.21 120.589 131.976 120.754C131.742 120.919 131.557 121.123 131.42 121.366C131.294 121.599 131.23 121.862 131.23 122.153C131.23 122.658 131.381 123.061 131.683 123.362C131.995 123.654 132.512 123.926 133.233 124.179L136.141 125.199C137.389 125.616 138.3 126.185 138.875 126.903C139.449 127.622 139.737 128.482 139.737 129.483C139.737 130.153 139.6 130.77 139.328 131.333C139.065 131.887 138.685 132.363 138.188 132.761C137.7 133.15 137.111 133.451 136.419 133.665C135.727 133.888 134.957 134 134.11 134C132.931 134 131.971 133.811 131.23 133.432C130.49 133.053 129.92 132.553 129.52 131.931H128V129.424H131.026C131.026 129.842 131.113 130.202 131.289 130.503C131.474 130.794 131.713 131.032 132.005 131.217C132.307 131.401 132.643 131.537 133.013 131.625C133.393 131.712 133.778 131.756 134.168 131.756C134.548 131.756 134.914 131.712 135.264 131.625C135.615 131.528 135.922 131.392 136.185 131.217C136.458 131.032 136.672 130.814 136.828 130.561C136.984 130.308 137.062 130.022 137.062 129.701C137.062 129.216 136.901 128.803 136.58 128.463C136.268 128.123 135.732 127.817 134.972 127.545L132.078 126.466C130.899 126.049 130.022 125.519 129.447 124.878C128.882 124.227 128.599 123.416 128.599 122.444C128.599 121.803 128.716 121.211 128.95 120.667C129.194 120.123 129.54 119.656 129.988 119.268C130.446 118.869 131.001 118.559 131.654 118.335C132.307 118.112 133.052 118 133.89 118C134.972 118 135.878 118.151 136.609 118.452C137.34 118.753 137.998 119.268 138.582 119.996H140V122.503H137.004Z" fill="#4A4E69"/>
<path d="M121.517 132.162C120.931 132.701 120.281 133.142 119.566 133.485C118.861 133.828 118.057 134 117.153 134C116.399 134 115.704 133.882 115.068 133.647C114.443 133.412 113.901 133.093 113.445 132.691C112.988 132.279 112.63 131.804 112.372 131.265C112.124 130.725 112 130.152 112 129.544C112 128.897 112.094 128.324 112.283 127.824C112.482 127.324 112.74 126.892 113.057 126.529C113.385 126.157 113.762 125.848 114.189 125.603C114.626 125.348 115.078 125.147 115.545 125C116.021 124.843 116.503 124.735 116.989 124.676C117.486 124.608 117.957 124.574 118.404 124.574C119.119 124.574 119.72 124.598 120.206 124.647C120.693 124.686 121.135 124.745 121.532 124.824L121.547 123.574C121.547 123.034 121.467 122.569 121.309 122.176C121.15 121.775 120.926 121.446 120.638 121.191C120.35 120.926 120.003 120.73 119.596 120.603C119.199 120.475 118.752 120.412 118.255 120.412C117.789 120.412 117.342 120.446 116.915 120.515C116.488 120.574 116.086 120.657 115.709 120.765C115.341 120.863 114.999 120.98 114.681 121.118C114.373 121.245 114.11 121.382 113.891 121.529L112.983 119.632C113.35 119.397 113.752 119.181 114.189 118.985C114.626 118.779 115.083 118.608 115.56 118.471C116.046 118.324 116.538 118.211 117.034 118.132C117.54 118.044 118.037 118 118.523 118C119.417 118 120.221 118.108 120.936 118.324C121.651 118.529 122.257 118.853 122.753 119.294C123.25 119.735 123.632 120.299 123.9 120.985C124.168 121.662 124.302 122.475 124.302 123.426L124.287 131.044H126V133.574H121.517V132.162ZM117.764 131.706C118.131 131.706 118.499 131.662 118.866 131.574C119.233 131.485 119.581 131.368 119.909 131.221C120.236 131.064 120.539 130.887 120.817 130.691C121.095 130.485 121.328 130.275 121.517 130.059L121.532 126.618H118.315C117.779 126.618 117.287 126.676 116.84 126.794C116.404 126.912 116.021 127.083 115.694 127.309C115.376 127.534 115.128 127.814 114.949 128.147C114.77 128.48 114.681 128.863 114.681 129.294C114.681 129.696 114.755 130.049 114.904 130.353C115.053 130.647 115.262 130.897 115.53 131.103C115.808 131.299 116.135 131.451 116.513 131.559C116.89 131.657 117.307 131.706 117.764 131.706Z" fill="#4A4E69"/>
<path d="M95 112H111V117.943H107.98V114.396H100.009V121.115H106.713V123.497H100.009V130.617H107.98V127.071H111V133H95V130.617H97.1215V114.396H95V112Z" fill="#4A4E69"/>
<path d="M88.2879 118.789H91.9697V120.953H88.2576L88.2121 129.527C88.2121 130.11 88.2828 130.583 88.4242 130.946C88.5657 131.309 88.7929 131.563 89.1061 131.706C89.4192 131.84 89.7727 131.907 90.1667 131.907C90.5909 131.907 90.9646 131.873 91.2879 131.806C91.6111 131.73 91.9646 131.606 92.3485 131.434L93 133.226C92.5152 133.465 92.0051 133.651 91.4697 133.785C90.9343 133.928 90.303 134 89.5758 134C88.8889 134 88.2879 133.919 87.7727 133.756C87.2677 133.603 86.8384 133.341 86.4848 132.968C86.1414 132.595 85.8838 132.098 85.7121 131.477C85.5404 130.846 85.4545 130.062 85.4545 129.125L85.5 120.953H83V118.789H85.5303V115.233L88.2879 114V118.789Z" fill="#4A4E69"/>
<path d="M67 125.993C67.009 124.797 67.1843 123.708 67.526 122.726C67.8767 121.744 68.3622 120.902 68.9827 120.202C69.6031 119.493 70.3404 118.948 71.1946 118.569C72.0488 118.19 72.9884 118 74.0135 118C75.0475 118 75.9917 118.19 76.8459 118.569C77.7091 118.948 78.4464 119.488 79.0578 120.188C79.6692 120.878 80.1458 121.714 80.4875 122.696C80.8292 123.679 81 124.768 81 125.964C81 127.14 80.8292 128.224 80.4875 129.216C80.1458 130.198 79.6692 131.044 79.0578 131.754C78.4464 132.464 77.7091 133.018 76.8459 133.417C75.9917 133.806 75.0475 134 74.0135 134C72.9615 134 72.0083 133.806 71.1541 133.417C70.2999 133.028 69.5671 132.483 68.9557 131.783C68.3443 131.073 67.8677 130.227 67.526 129.245C67.1843 128.263 67.009 127.179 67 125.993ZM69.657 125.993C69.657 126.858 69.7694 127.641 69.9942 128.341C70.228 129.041 70.5427 129.639 70.9383 130.135C71.343 130.621 71.806 131 72.3276 131.273C72.8581 131.535 73.42 131.666 74.0135 131.666C74.6339 131.666 75.2094 131.535 75.7399 131.273C76.2794 131.01 76.7469 130.636 77.1426 130.149C77.5382 129.654 77.8484 129.056 78.0732 128.356C78.298 127.655 78.4104 126.868 78.4104 125.993C78.4104 125.079 78.298 124.267 78.0732 123.557C77.8484 122.847 77.5382 122.254 77.1426 121.778C76.7559 121.301 76.2929 120.941 75.7534 120.698C75.2139 120.455 74.6339 120.334 74.0135 120.334C73.42 120.334 72.8581 120.455 72.3276 120.698C71.806 120.941 71.343 121.301 70.9383 121.778C70.5427 122.254 70.228 122.847 69.9942 123.557C69.7694 124.267 69.657 125.079 69.657 125.993Z" fill="#4A4E69"/>
<path d="M38 119.252H42.6378V120.858H42.6659C42.9845 120.601 43.3171 120.362 43.6638 120.141C44.0198 119.911 44.3899 119.712 44.7741 119.544C45.1582 119.376 45.5564 119.243 45.9686 119.146C46.3903 119.049 46.8259 119 47.2757 119C48.325 119 49.2292 119.186 49.9881 119.557C50.747 119.92 51.3326 120.491 51.7449 121.269C52.1009 120.968 52.4757 120.681 52.8692 120.407C53.2627 120.124 53.6703 119.88 54.0919 119.677C54.5229 119.473 54.9726 119.31 55.4411 119.186C55.9095 119.062 56.3968 119 56.9027 119C57.6897 119 58.3971 119.102 59.0249 119.305C59.6526 119.509 60.1867 119.818 60.627 120.234C61.0674 120.65 61.4 121.185 61.6249 121.84C61.8591 122.486 61.9762 123.251 61.9762 124.136V130.718H64V133H57.1978V130.718H59.2497V124.441C59.2497 123.388 58.9686 122.592 58.4065 122.052C57.8443 121.504 57.0339 121.229 55.9751 121.229C55.3474 121.229 54.7056 121.371 54.0497 121.654C53.3939 121.937 52.8317 122.295 52.3632 122.729V130.718H54.373V133H47.5849V130.718H49.6368V124.441C49.6368 123.388 49.351 122.592 48.7795 122.052C48.2173 121.504 47.4068 121.229 46.3481 121.229C45.7391 121.229 45.1254 121.367 44.507 121.641C43.8886 121.915 43.3031 122.256 42.7503 122.663V130.718H44.8022V133H38V130.718H40.0238V121.535H38V119.252Z" fill="#4A4E69"/>
<path d="M20 125.993C20.0096 124.797 20.1975 123.708 20.5636 122.726C20.9393 121.744 21.4595 120.902 22.1243 120.202C22.789 119.493 23.579 118.948 24.4942 118.569C25.4094 118.19 26.4162 118 27.5145 118C28.6224 118 29.6339 118.19 30.5491 118.569C31.474 118.948 32.264 119.488 32.9191 120.188C33.5742 120.878 34.0848 121.714 34.4509 122.696C34.817 123.679 35 124.768 35 125.964C35 127.14 34.817 128.224 34.4509 129.216C34.0848 130.198 33.5742 131.044 32.9191 131.754C32.264 132.464 31.474 133.018 30.5491 133.417C29.6339 133.806 28.6224 134 27.5145 134C26.3873 134 25.3661 133.806 24.4509 133.417C23.5356 133.028 22.7505 132.483 22.0954 131.783C21.4403 131.073 20.9297 130.227 20.5636 129.245C20.1975 128.263 20.0096 127.179 20 125.993ZM22.8468 125.993C22.8468 126.858 22.9672 127.641 23.2081 128.341C23.4586 129.041 23.7958 129.639 24.2197 130.135C24.6532 130.621 25.1493 131 25.7081 131.273C26.2765 131.535 26.8786 131.666 27.5145 131.666C28.1792 131.666 28.7958 131.535 29.3642 131.273C29.9422 131.01 30.4432 130.636 30.8671 130.149C31.2909 129.654 31.6233 129.056 31.8642 128.356C32.105 127.655 32.2254 126.868 32.2254 125.993C32.2254 125.079 32.105 124.267 31.8642 123.557C31.6233 122.847 31.2909 122.254 30.8671 121.778C30.4528 121.301 29.9566 120.941 29.3786 120.698C28.8006 120.455 28.1792 120.334 27.5145 120.334C26.8786 120.334 26.2765 120.455 25.7081 120.698C25.1493 120.941 24.6532 121.301 24.2197 121.778C23.7958 122.254 23.4586 122.847 23.2081 123.557C22.9672 124.267 22.8468 125.079 22.8468 125.993Z" fill="#4A4E69"/>
<path d="M0 112H7.85151C8.81671 112 9.7355 112.125 10.6079 112.374C11.4803 112.623 12.2923 112.974 13.0441 113.427C13.7958 113.879 14.478 114.424 15.0905 115.061C15.703 115.689 16.2227 116.391 16.6497 117.167C17.0858 117.943 17.42 118.778 17.652 119.674C17.884 120.561 18 121.484 18 122.445C18 123.423 17.884 124.361 17.652 125.257C17.42 126.152 17.0858 126.993 16.6497 127.778C16.2227 128.563 15.703 129.278 15.0905 129.925C14.478 130.562 13.7958 131.111 13.0441 131.573C12.2923 132.026 11.4803 132.377 10.6079 132.626C9.7355 132.875 8.81671 133 7.85151 133H0V130.617H2.00464V114.396H0V112ZM4.73318 114.396V130.617H8.01856C8.99304 130.617 9.90719 130.405 10.761 129.98C11.6241 129.555 12.3759 128.978 13.0162 128.249C13.6566 127.51 14.1624 126.646 14.5336 125.658C14.9049 124.661 15.0905 123.59 15.0905 122.445C15.0905 121.318 14.9049 120.265 14.5336 119.286C14.1624 118.307 13.6566 117.458 13.0162 116.737C12.3759 116.008 11.6241 115.435 10.761 115.02C9.90719 114.604 8.99304 114.396 8.01856 114.396H4.73318Z" fill="#4A4E69"/>
</g>
<defs>
<clipPath id="clip0_34_294">
<rect width="156" height="140" fill="white"/>
</clipPath>
</defs>
</svg>
